<?xml version="1.0" standalone="no"?>
<!DOCTYPE svg PUBLIC "-//W3C//DTD SVG 20010904//EN"
 "http://www.w3.org/TR/2001/REC-SVG-20010904/DTD/svg10.dtd">
<svg version="1.0" xmlns="http://www.w3.org/2000/svg"
 width="1024.000000pt" height="1024.000000pt" viewBox="0 0 1024.000000 1024.000000"
 preserveAspectRatio="xMidYMid meet">

<g transform="translate(0.000000,1024.000000) scale(0.100000,-0.100000)"
fill="#000000" stroke="none">
<path d="M7781 8139 c-99 -19 -173 -76 -215 -168 -17 -39 -21 -69 -24 -196 -3
-185 -5 -195 -37 -195 -13 0 -36 -5 -50 -12 -52 -24 -73 -110 -35 -148 19 -19
33 -20 386 -20 417 0 418 0 454 -74 20 -41 20 -57 20 -785 l0 -743 34 -34 c28
-28 41 -34 78 -34 24 0 54 7 66 16 53 37 52 15 52 802 0 484 -4 748 -11 788
-16 85 -55 161 -113 219 -59 59 -122 92 -206 108 l-60 12 0 112 c0 88 -4 124
-20 166 -50 133 -185 212 -319 186z"/>
<path d="M3879 7934 c-57 -17 -129 -80 -176 -153 -20 -31 -81 -126 -135 -211
-110 -173 -163 -229 -244 -259 -52 -20 -75 -21 -447 -21 -216 0 -432 -5 -481
-10 -332 -38 -620 -281 -724 -610 -49 -153 -47 -91 -47 -1720 l0 -1535 26 -95
c103 -370 361 -613 717 -675 62 -11 165 -15 376 -15 334 0 373 6 425 65 43 50
54 96 50 216 -5 125 -22 163 -89 197 -43 21 -53 22 -343 22 -237 0 -312 3
-368 16 -96 22 -180 80 -235 162 -79 118 -74 11 -74 1654 0 1570 -2 1517 49
1616 34 66 96 127 168 163 l68 34 560 6 c611 6 590 3 685 68 61 40 96 87 248
331 53 85 111 171 128 190 l32 35 665 0 c621 0 666 -1 684 -18 11 -9 82 -115
159 -235 156 -243 212 -308 301 -344 58 -23 60 -23 553 -26 466 -2 497 -1 529
16 63 34 72 66 69 239 -3 165 -8 180 -72 227 -26 20 -43 21 -414 26 -495 6
-469 -2 -611 210 -42 63 -108 163 -145 223 -80 126 -146 190 -219 212 -73 22
-1597 21 -1668 -1z"/>
<path d="M7424 7280 c-12 -4 -27 -23 -33 -41 -8 -23 -11 -498 -11 -1729 l0
-1697 21 -27 20 -26 348 0 c324 0 349 1 364 18 16 17 17 152 17 1743 0 1474
-2 1728 -14 1745 -14 18 -31 19 -353 21 -186 1 -348 -2 -359 -7z"/>
<path d="M4175 6800 c-56 -23 -55 -20 -290 -680 -68 -190 -236 -660 -373
-1045 -138 -385 -255 -718 -261 -740 -14 -55 -1 -100 53 -172 125 -169 348
-326 480 -340 77 -8 94 11 146 159 29 81 53 132 71 151 l27 27 582 0 c629 0
628 0 663 -53 13 -20 58 -157 136 -414 35 -113 68 -158 124 -168 18 -4 166 -5
330 -3 l299 3 30 34 c57 64 77 -8 -418 1511 -453 1389 -537 1642 -559 1675
-44 66 -40 65 -555 64 -256 0 -474 -4 -485 -9z m570 -987 c145 -455 228 -715
273 -851 l47 -144 -24 -19 c-22 -18 -44 -19 -395 -19 -320 0 -375 2 -394 16
-12 8 -22 24 -22 34 0 10 30 103 66 207 78 224 122 350 243 702 51 145 94 268
97 272 3 5 14 9 24 9 16 0 30 -35 85 -207z"/>
<path d="M6334 6520 c-12 -5 -29 -19 -38 -32 -15 -20 -16 -155 -16 -1451 0
-1569 -4 -1469 60 -1502 24 -12 77 -15 302 -15 253 0 275 2 305 20 69 41 63
-84 61 1499 l-3 1433 -33 29 -32 29 -293 -1 c-160 0 -302 -4 -313 -9z"/>
<path d="M3403 6051 c-313 -109 -628 -429 -762 -776 -125 -322 -134 -709 -25
-1041 158 -483 575 -863 1089 -993 269 -67 606 -55 863 33 227 77 455 220 482
301 14 41 10 61 -41 221 -43 134 -64 163 -126 171 -48 6 -71 -5 -178 -86 -208
-158 -434 -230 -688 -218 -485 22 -879 348 -1000 827 -18 70 -21 112 -21 240
1 133 5 169 27 253 61 229 208 434 403 560 39 25 76 52 82 60 22 26 132 338
132 374 0 27 -8 43 -34 69 -44 44 -89 45 -203 5z"/>
<path d="M7430 3590 c-17 -17 -20 -33 -20 -124 0 -145 -21 -243 -75 -353 -26
-53 -45 -106 -45 -125 0 -23 21 -70 70 -153 152 -259 241 -452 294 -640 27
-94 35 -110 54 -113 l22 -3 0 377 0 377 -35 38 c-49 54 -49 107 -1 155 68 68
154 34 164 -64 4 -47 2 -54 -27 -82 -17 -18 -36 -40 -41 -50 -6 -11 -10 -163
-10 -385 l0 -366 27 3 c24 3 28 10 50 93 48 182 149 403 311 684 77 133 80
151 29 243 -53 94 -77 192 -84 338 -3 82 -10 133 -19 148 l-14 22 -315 0
c-302 0 -316 -1 -335 -20z"/>
</g>
</svg>
